# xmcd
#
# Track frame offsets: 
#        150
#        10703
#        21887
#        31150
#        41088
#        49832
#        63133
#        75472
#        87333
#        98147
#
# Disc length: 1473 seconds
#
# Revision: 0
# Processed by: cddbd v1.5.2PL0 Copyright (c) Steve Scherf et al.
# Submitted via: ExactAudioCopy v1.3
#
DISCID=6b05bf0a
DTITLE=Hank Williams Jr. - Time To Sing
DYEAR=1967
DGENRE=Country
TTITLE0=Time To Sing
TTITLE1=Next Time I Say Goodbye I'm Leaving
TTITLE2=Old Before My Time
TTITLE3=Rock In My Shoe
TTITLE4=Money Can't Buy Happiness
TTITLE5=Man Is On His Own
TTITLE6=There's Gotta Be Much More To Life Than
TTITLE7=It's All Over But The Crying
TTITLE8=Give Me The Hummingbird Line
TTITLE9=Time To Sing
EXTD=
EXTT0=
EXTT1=
EXTT2=
EXTT3=
EXTT4=
EXTT5=
EXTT6=
EXTT7=
EXTT8=
EXTT9=
PLAYORDER=
